<svg data-v-0dd9719b="" version="1.0" xmlns="http://www.w3.org/2000/svg" xmlns:xlink="http://www.w3.org/1999/xlink" width="100%" height="100%" viewBox="0 0 340.000000 250.000000" preserveAspectRatio="xMidYMid meet" color-interpolation-filters="sRGB" style="margin: auto;"> <rect data-v-0dd9719b="" x="0" y="0" width="100%" height="100%" fill="#ffffff" fill-opacity="1" class="background"></rect> <rect data-v-0dd9719b="" x="0" y="0" width="100%" height="100%" fill="url(#watermark)" fill-opacity="1" class="watermarklayer"></rect> <g data-v-0dd9719b="" fill="#bb2e2e" class="icon-text-wrapper icon-svg-group iconsvg" transform="translate(49.30999755859375,95)"><g class="iconsvg-imagesvg" transform="translate(0,0)"><g><rect fill="#bb2e2e" fill-opacity="0" stroke-width="2" x="0" y="0" width="60" height="60" class="image-rect"></rect> <svg filter="url(#colors8975052977)" x="0" y="0" width="60" height="60" filtersec="colorsf558945226" class="image-svg-svg primary" style="overflow: visible;"><svg fill="#000000" xmlns="http://www.w3.org/2000/svg" xmlns:xlink="http://www.w3.org/1999/xlink" version="1.0" x="0px" y="0px" viewBox="10 10 80 80" enable-background="new 0 0 100 100" xml:space="preserve"><path d="M90,42.301L76.667,19.209l-13.334,7.699V10H36.667v16.908l-13.334-7.699L10,42.301L23.333,50L10,57.698l13.333,23.093  l13.334-7.698V90h26.666V73.093l13.334,7.698L90,57.698L76.667,50L90,42.301z M80.892,60.14l-6.666,11.543L56.667,61.546v21.787  H43.333V61.546L25.774,71.683L19.108,60.14L36.667,50L19.108,39.863l6.666-11.549l17.559,10.14V16.667h13.334v21.787l17.559-10.14  l6.666,11.549L63.333,50L80.892,60.14z"></path></svg></svg> <defs><filter id="colors8975052977"><feColorMatrix type="matrix" values="0 0 0 0 0.73046875  0 0 0 0 0.1796875  0 0 0 0 0.1796875  0 0 0 1 0" class="icon-fecolormatrix"></feColorMatrix></filter> <filter id="colorsf558945226"><feColorMatrix type="matrix" values="0 0 0 0 0.99609375  0 0 0 0 0.99609375  0 0 0 0 0.99609375  0 0 0 1 0" class="icon-fecolormatrix"></feColorMatrix></filter> <filter id="colorsb7449393669"><feColorMatrix type="matrix" values="0 0 0 0 0  0 0 0 0 0  0 0 0 0 0  0 0 0 1 0" class="icon-fecolormatrix"></feColorMatrix></filter></defs></g></g> <g transform="translate(67,2.0760021209716797)"><g data-gra="path-name" fill-rule="" class="tp-name iconsvg-namesvg" transform="translate(0,0)"><g transform="scale(1)"><g><path d="M12.38 2.25Q10.62 2.52 10.26 1.71 9.9 0.9 10.66-0.49L10.66-0.49Q11.38-1.75 11.38-2.52L11.38-2.52 11.38-16.83 4.46-16.83Q2.83-16.83 2.83-18.5L2.83-18.5Q2.83-20.11 4.46-20.11L4.46-20.11 11.38-20.11 11.38-35.64Q11.38-37.35 13.09-37.35L13.09-37.35Q14.8-37.35 14.8-35.64L14.8-35.64 14.8-20.11 40.5-20.11Q42.12-20.11 42.12-18.5L42.12-18.5Q42.12-16.83 40.5-16.83L40.5-16.83 25.11-16.83Q27.36-11.65 31.23-7.83L31.23-7.83Q35.14-3.96 40.41-1.84L40.41-1.84Q43.11-0.99 41.71 0.9L41.71 0.9Q40.81 2.11 39.1 1.48L39.1 1.48Q26.91-3.38 21.73-16.83L21.73-16.83 14.8-16.83 14.8-1.8 23.67-4Q25.43-4.46 25.61-2.75L25.61-2.75Q25.65-2.07 24.43-1.3L24.43-1.3Q23.45-0.67 22.45-0.4L22.45-0.4Q21.06 0 18.72 0.63L18.72 0.63Q13.63 2.07 12.38 2.25L12.38 2.25ZM21.96-23.18Q20.52-22.45 19.44-23.54L19.44-23.54Q18.59-24.39 18.77-25 18.95-25.61 20.11-26.14L20.11-26.14Q28.3-30.02 33.48-35.59L33.48-35.59Q34.38-36.67 35.73-36.05L35.73-36.05Q37.66-35.19 36.36-33.66L36.36-33.66Q33.39-30.55 29.74-27.99L29.74-27.99Q26.05-25.29 21.96-23.18L21.96-23.18ZM63.45 3.1Q61.61 3.55 60.88 2.29L60.88 2.29Q59.8 0.49 62.73-0.18L62.73-0.18Q69.93-2.02 74.43-5.78 78.93-9.54 81.18-15.57L81.18-15.57Q81.81-17.23 83.32-16.79 84.82-16.34 84.33-14.63L84.33-14.63Q81.81-7.65 76.81-3.42L76.81-3.42Q71.73 0.9 63.45 3.1L63.45 3.1ZM52.2 1.3Q51.34 2.79 49.86 1.67L49.86 1.67Q48.51 0.63 49.32-0.58L49.32-0.58Q51.08-3.51 52.42-5.98L52.42-5.98Q54.41-9.58 55.62-12.11L55.62-12.11Q56.43-13.77 57.87-12.51L57.87-12.51Q58.86-11.65 58.37-10.48L58.37-10.48Q55.75-5.04 52.2 1.3L52.2 1.3ZM68.81-10.21L68.81-10.21Q66.69-10.21 66.28-11.52L66.28-11.52Q65.92-12.51 66.64-13L66.64-13Q67.28-13.46 68.49-13.41L68.49-13.41Q70.56-13.41 70.92-13.46L70.92-13.46Q71.82-13.46 71.82-14.26L71.82-14.26 71.82-35.91Q71.82-37.53 73.48-37.53L73.48-37.53Q75.11-37.53 75.11-35.91L75.11-35.91 75.11-14.22Q75.11-12.78 74.72-11.99 74.34-11.21 73.39-10.8L73.39-10.8Q72.13-10.3 68.81-10.21ZM62.23-17.28Q61.34-15.97 59.98-16.83L59.98-16.83Q59.17-17.32 59.06-17.82 58.95-18.31 59.49-19.04L59.49-19.04Q62.1-23.04 64.03-28.8L64.03-28.8Q64.48-30.42 66.02-30.06L66.02-30.06Q67.68-29.74 67.19-28.08L67.19-28.08Q66.15-24.97 64.91-22.21 63.67-19.44 62.23-17.28L62.23-17.28ZM86.81-18.13Q85.14-17.32 84.64-18.9L84.64-18.9Q84.02-20.7 82.75-23.36L82.75-23.36Q81.67-25.65 80.06-28.26L80.06-28.26Q79.16-29.65 80.73-30.33L80.73-30.33Q81.94-30.87 82.71-29.74L82.71-29.74Q86.04-24.66 87.75-19.93L87.75-19.93Q87.97-19.26 87.75-18.86L87.75-18.86Q87.53-18.5 86.81-18.13L86.81-18.13ZM56.3-19.44Q55.3-17.91 54-18.9L54-18.9Q52.83-19.75 51.62-20.43L51.62-20.43Q50.72-20.97 48.73-22.05L48.73-22.05Q48.65-22.09 48.6-22.14L48.6-22.14Q47.07-22.81 48.1-24.21L48.1-24.21Q48.87-25.24 49.99-24.79L49.99-24.79Q53.37-23.31 56.12-21.46L56.12-21.46Q56.7-21.02 56.7-20.52L56.7-20.52Q56.74-20.11 56.3-19.44L56.3-19.44ZM58.55-31.14Q57.47-29.7 56.25-30.73L56.25-30.73Q55.13-31.63 53.91-32.4L53.91-32.4Q52.02-33.57 50.94-34.11L50.94-34.11Q49.55-34.88 50.53-36.23L50.53-36.23Q51.3-37.26 52.42-36.77L52.42-36.77Q56.12-34.96 58.45-33.21L58.45-33.21Q59.45-32.31 58.55-31.14L58.55-31.14ZM123.62 1.8L101.66 1.8Q100.48 1.8 99.77 1.08 99.05 0.36 99.05-0.81L99.05-0.81 99.05-12.38Q99.05-13.54 99.77-14.26 100.48-14.98 101.66-14.98L101.66-14.98 123.62-14.98Q124.78-14.98 125.5-14.26 126.22-13.54 126.22-12.38L126.22-12.38 126.22-0.81Q126.22 0.36 125.5 1.08 124.78 1.8 123.62 1.8L123.62 1.8ZM103.23-0.94L103.23-0.94 121.95-0.94Q122.89-0.94 122.89-1.89L122.89-1.89 122.89-5.4 102.28-5.4 102.28-1.89Q102.28-0.94 103.23-0.94ZM102.28-11.29L102.28-8.01 122.89-8.01 122.89-11.29Q122.89-12.24 121.95-12.24L121.95-12.24 103.23-12.24Q102.28-12.24 102.28-11.29L102.28-11.29ZM95.94-14.8Q94.28-13.9 93.42-14.89L93.42-14.89Q92.79-15.62 93.33-16.38L93.33-16.38Q93.78-17.01 94.91-17.5L94.91-17.5Q99.77-20.16 101.16-24.21L101.16-24.21 93.92-24.21Q92.56-24.21 92.56-25.61L92.56-25.61Q92.56-26.95 93.92-26.95L93.92-26.95 101.7-26.95Q101.79-27.54 101.79-28.57L101.79-28.57 101.79-31.18 98.06-31.18Q97.29-29.79 96.12-28.21L96.12-28.21Q95.27-27.13 94.09-27.86L94.09-27.86Q92.52-28.8 93.83-30.15L93.83-30.15Q95.85-32.71 97.16-36.31L97.16-36.31Q97.61-37.75 99.05-37.48L99.05-37.48Q100.58-37.17 100.13-35.64L100.13-35.64Q100.03-35.37 99.79-34.78 99.54-34.2 99.41-33.88L99.41-33.88 110.16-33.88Q111.51-33.88 111.51-32.53 111.51-31.18 110.16-31.18L110.16-31.18 104.98-31.18 104.98-28.57Q104.98-27.54 104.89-26.95L104.89-26.95 111.28-26.95Q112.63-26.95 112.63-25.61L112.63-25.61Q112.63-24.21 111.28-24.21L111.28-24.21 104.4-24.21Q104.36-23.98 104.22-23.63L104.22-23.63Q104.17-23.49 104.17-23.45L104.17-23.45Q107.37-21.69 111.19-19.17L111.19-19.17Q111.91-18.68 111.83-18.27L111.83-18.27Q111.78-17.95 111.06-17.23L111.06-17.23Q110.47-16.65 110.11-16.56L110.11-16.56Q109.66-16.43 109.08-16.88L109.08-16.88Q106.83-18.68 103.14-21.2L103.14-21.2Q100.84-17.37 95.94-14.8L95.94-14.8ZM127.39-18.4L117.09-18.4Q115.92-18.4 115.2-19.13 114.48-19.84 114.48-21.02L114.48-21.02 114.48-31.41Q114.48-32.58 115.2-33.3 115.92-34.02 117.09-34.02L117.09-34.02 127.39-34.02Q128.56-34.02 129.28-33.3 130-32.58 130-31.41L130-31.41 130-21.02Q130-19.84 129.28-19.13 128.56-18.4 127.39-18.4L127.39-18.4ZM118.53-21.46L118.53-21.46 125.82-21.46Q126.77-21.46 126.77-22.41L126.77-22.41 126.77-30.06Q126.77-31 125.82-31L125.82-31 118.53-31Q117.58-31 117.58-30.06L117.58-30.06 117.58-22.41Q117.58-21.46 118.53-21.46ZM174.15 2.83Q172.8 3.82 171.9 2.61L171.9 2.61Q171.54 2.16 170.69 1.26L170.69 1.26Q170.41 0.94 170.28 0.81L170.28 0.81Q165.42 1.08 158.04 1.57L158.04 1.57Q150.53 2.02 148.23 2.11L148.23 2.11Q144.76 2.29 143.5 2.11 142.25 1.93 142.06 1.26L142.06 1.26Q141.79 0.36 142.38-0.36L142.38-0.36Q142.74-0.81 143.82-1.57L143.82-1.57Q144.36-1.93 144.63-2.16L144.63-2.16Q145.53-2.75 147.24-4.27L147.24-4.27Q149.26-6.08 151.02-8.01L151.02-8.01 140.49-8.01Q138.96-8.01 138.96-9.54 138.96-11.07 140.49-11.07L140.49-11.07 174.64-11.07Q176.18-11.07 176.18-9.54 176.18-8.01 174.64-8.01L174.64-8.01 155.56-8.01Q151.51-3.65 147.74-0.81L147.74-0.81 167.63-1.89Q167.53-1.98 167.4-2.11L167.4-2.11Q165.42-3.87 164.47-4.72L164.47-4.72Q163.31-5.71 164.66-6.75L164.66-6.75Q165.65-7.47 166.54-6.75L166.54-6.75Q171.45-2.75 174.6 0.85L174.6 0.85Q175.09 1.48 174.96 1.93L174.96 1.93Q174.82 2.29 174.15 2.83L174.15 2.83ZM140.67-14.31Q139.19-13.77 138.33-14.85L138.33-14.85Q137.07-16.47 139.41-17.37L139.41-17.37Q151.25-22.09 156.82-28.39L156.82-28.39Q157.23-28.89 157.72-28.93L157.72-28.93Q158.13-28.93 158.85-28.62L158.85-28.62Q160.51-27.86 159.3-26.46L159.3-26.46Q162.09-24.12 166.37-21.78L166.37-21.78Q170.87-19.35 175.45-17.77L175.45-17.77Q177.88-16.96 176.58-15.3L176.58-15.3Q175.72-14.22 174.24-14.67L174.24-14.67Q170.95-15.93 167.53-17.73L167.53-17.73 167.53-16.11Q167.53-14.8 166.23-14.8L166.23-14.8 149.99-14.8Q148.81-14.8 148.12-15.5 147.42-16.2 147.42-17.37L147.42-17.37 147.42-17.5Q144.27-15.75 140.67-14.31L140.67-14.31ZM147.91-17.77L147.91-17.77 167.4-17.77Q161.5-20.84 157.32-24.52L157.32-24.52Q153.72-21.06 147.91-17.77ZM149.26-26.23L149.26-26.23Q147.65-26.23 147.65-27.86L147.65-27.86 147.65-30.46 139.23-30.46Q137.7-30.46 137.7-32.04L137.7-32.04Q137.7-33.57 139.23-33.57L139.23-33.57 147.65-33.57 147.65-36Q147.65-37.62 149.26-37.62L149.26-37.62Q150.88-37.62 150.88-36L150.88-36 150.88-33.57 163.89-33.57 163.89-36Q163.89-37.62 165.51-37.62L165.51-37.62Q167.13-37.62 167.13-36L167.13-36 167.13-33.57 175.68-33.57Q177.21-33.57 177.21-32.04L177.21-32.04Q177.21-30.46 175.68-30.46L175.68-30.46 167.13-30.46 167.13-27.86Q167.13-26.23 165.51-26.23L165.51-26.23Q163.89-26.23 163.89-27.86L163.89-27.86 163.89-30.46 150.88-30.46 150.88-27.86Q150.88-26.23 149.26-26.23Z" transform="translate(-2.8299999237060547, 37.619998931884766)"></path></g> <!----> <!----> <!----> <!----> <!----> <!----> <!----></g></g> <g data-gra="path-slogan" fill-rule="" class="tp-slogan iconsvg-slogansvg" fill="#bb2e2e" transform="translate(5,46.89550018310547)"><rect x="0" height="1" y="3.9750003814697266" width="24.560001373291016"></rect> <rect height="1" y="3.9750003814697266" width="24.560001373291016" x="139.82000350952148"></rect> <g transform="translate(27.560001373291016,0)"><g transform="scale(1)"><path d="M8.06-6.05L8.06-6.05L6.94-6.05Q6.52-7.78 4.55-7.83L4.55-7.83Q1.83-7.69 1.73-4.36L1.73-4.36Q1.73-0.80 4.59-0.80L4.59-0.80Q6.56-0.84 7.03-3.19L7.03-3.19L8.16-3.19Q7.64 0.05 4.36 0.14L4.36 0.14Q0.61 0 0.52-4.31L0.52-4.31Q0.70-8.63 4.55-8.81L4.55-8.81Q7.59-8.72 8.06-6.05ZM10.69-5.06L15.19-5.06L15.19-8.58L16.36-8.58L16.36 0L15.19 0L15.19-3.98L10.69-3.98L10.69 0L9.52 0L9.52-8.58L10.69-8.58L10.69-5.06ZM23.81 0L22.97-2.48L19.50-2.48L18.61 0L17.44 0L20.67-8.58L21.98-8.58L25.08 0L23.81 0ZM21.23-7.31L19.88-3.52L22.55-3.52L21.28-7.31L21.23-7.31ZM27.52-8.58L31.83-1.64L31.83-8.58L32.95-8.58L32.95 0L31.64 0L27.28-6.94L27.23-6.94L27.23 0L26.11 0L26.11-8.58L27.52-8.58ZM41.16-3.61L38.53-3.61L38.53-4.59L42.28-4.59L42.28 0L41.53 0L41.25-1.08Q40.27 0.09 38.44 0.14L38.44 0.14Q36.70 0.14 35.77-0.75L35.77-0.75Q34.36-2.06 34.41-4.36L34.41-4.36Q34.73-8.63 38.48-8.81L38.48-8.81Q41.67-8.63 42.14-6L42.14-6L41.02-6Q40.55-7.78 38.44-7.83L38.44-7.83Q35.77-7.64 35.63-4.31L35.63-4.31Q35.63-0.75 38.48-0.75L38.48-0.75Q39.52-0.75 40.27-1.31L40.27-1.31Q41.20-2.06 41.16-3.61L41.16-3.61ZM50.34-6.09L50.34-6.09L49.27-6.09Q49.17-7.73 47.11-7.83L47.11-7.83Q45.19-7.78 45.19-6.33L45.19-6.33Q45.19-5.39 46.22-5.25L46.22-5.25L48.66-4.69Q50.58-4.22 50.58-2.34L50.58-2.34Q50.53 0.05 47.20 0.14L47.20 0.14Q45.38 0.14 44.63-0.61L44.63-0.61Q43.69-1.31 43.73-2.77L43.73-2.77L44.86-2.77Q44.91-0.80 47.20-0.75L47.20-0.75Q49.45-0.80 49.50-2.20L49.50-2.20Q49.69-3.38 47.63-3.75L47.63-3.75L45.84-4.13Q44.02-4.64 44.02-6.19L44.02-6.19Q44.16-8.72 47.02-8.81L47.02-8.81Q50.25-8.81 50.34-6.09ZM53.20-5.06L57.70-5.06L57.70-8.58L58.88-8.58L58.88 0L57.70 0L57.70-3.98L53.20-3.98L53.20 0L52.03 0L52.03-8.58L53.20-8.58L53.20-5.06ZM66.33 0L65.48-2.48L62.02-2.48L61.13 0L59.95 0L63.19-8.58L64.50-8.58L67.59 0L66.33 0ZM63.75-7.31L62.39-3.52L65.06-3.52L63.80-7.31L63.75-7.31ZM72.80-1.03L78.09-1.03L78.09 0L71.34 0L71.34-0.94L76.59-7.59L71.72-7.59L71.72-8.58L78.09-8.58L78.09-7.59L72.80-1.03ZM80.39-5.06L84.89-5.06L84.89-8.58L86.06-8.58L86.06 0L84.89 0L84.89-3.98L80.39-3.98L80.39 0L79.22 0L79.22-8.58L80.39-8.58L80.39-5.06ZM88.03-8.58L89.20-8.58L89.20 0L88.03 0L88.03-8.58ZM92.34-5.06L96.84-5.06L96.84-8.58L98.02-8.58L98.02 0L96.84 0L96.84-3.98L92.34-3.98L92.34 0L91.17 0L91.17-8.58L92.34-8.58L92.34-5.06ZM105.47-3.19L105.47-8.58L106.64-8.58L106.64-3.05Q106.50 0.05 103.13 0.14L103.13 0.14Q99.98 0.05 99.84-2.86L99.84-2.86L99.84-8.58L101.02-8.58L101.02-3.19Q101.06-0.84 103.17-0.80L103.17-0.80Q105.47-0.84 105.47-3.19L105.47-3.19ZM108.61-8.58L109.78-8.58L109.78 0L108.61 0L108.61-8.58Z" transform="translate(-0.515625, 8.8125)"></path></g></g></g></g></g><defs v-gra="od"></defs></svg>